<svg width="24" height="24" viewBox="0 0 24 24" xmlns="http://www.w3.org/2000/svg">
<path fill-rule="evenodd" clip-rule="evenodd" d="M3 3H21V21H3V3ZM17.2361 12C17.7111 11.5223 18 10.8915 18 10.2C18 8.70883 16.6569 7.5 15 7.5C13.3431 7.5 12 8.70883 12 10.2C12 10.8915 12.2889 11.5223 12.7639 12C12.2889 12.4777 12 13.1085 12 13.8C12 15.2912 13.3431 16.5 15 16.5C16.6569 16.5 18 15.2912 18 13.8C18 13.1085 17.7111 12.4777 17.2361 12ZM16 10.2C16 10.697 15.5523 11.1 15 11.1C14.4477 11.1 14 10.697 14 10.2C14 9.70293 14.4477 9.29999 15 9.29999C15.5523 9.29999 16 9.70293 16 10.2ZM16 13.8C16 14.297 15.5523 14.7 15 14.7C14.4477 14.7 14 14.297 14 13.8C14 13.3029 14.4477 12.9 15 12.9C15.5523 12.9 16 13.3029 16 13.8ZM8.16089 7.5H6.16089V9.5V11V13V14.5V16.5H8.16089H11.1609V14.5H8.16089V13H11.1609V11H8.16089V9.5H11.1609V7.5H8.16089Z" fill="#fff"/>
</svg>
